<svg width="122" height="49" viewBox="0 0 122 49" fill="none" xmlns="http://www.w3.org/2000/svg">
<path d="M14.8909 26.2363L26.2363 14.8909H37.5818V26.2363H26.2363V37.5818H14.8909V26.2363Z" fill="white"/>
<path d="M24.1091 12.7637L12.7637 24.1091L1.41822 24.1091L1.41822 12.7637L12.7637 12.7637L12.7637 1.41822L24.1091 1.41822L24.1091 12.7637Z" fill="white"/>
<circle cx="32.6181" cy="6.38182" r="6.38182" fill="white"/>
<circle cx="6.38182" cy="32.6181" r="6.38182" fill="white"/>
<path d="M51.32 26.64C50.2933 26.64 49.3733 26.4733 48.56 26.14C47.7467 25.8067 47.0933 25.3133 46.6 24.66C46.12 24.0067 45.8667 23.22 45.84 22.3H49.48C49.5333 22.82 49.7133 23.22 50.02 23.5C50.3267 23.7667 50.7267 23.9 51.22 23.9C51.7267 23.9 52.1267 23.7867 52.42 23.56C52.7133 23.32 52.86 22.9933 52.86 22.58C52.86 22.2333 52.74 21.9467 52.5 21.72C52.2733 21.4933 51.9867 21.3067 51.64 21.16C51.3067 21.0133 50.8267 20.8467 50.2 20.66C49.2933 20.38 48.5533 20.1 47.98 19.82C47.4067 19.54 46.9133 19.1267 46.5 18.58C46.0867 18.0333 45.88 17.32 45.88 16.44C45.88 15.1333 46.3533 14.1133 47.3 13.38C48.2467 12.6333 49.48 12.26 51 12.26C52.5467 12.26 53.7933 12.6333 54.74 13.38C55.6867 14.1133 56.1933 15.14 56.26 16.46H52.56C52.5333 16.0067 52.3667 15.6533 52.06 15.4C51.7533 15.1333 51.36 15 50.88 15C50.4667 15 50.1333 15.1133 49.88 15.34C49.6267 15.5533 49.5 15.8667 49.5 16.28C49.5 16.7333 49.7133 17.0867 50.14 17.34C50.5667 17.5933 51.2333 17.8667 52.14 18.16C53.0467 18.4667 53.78 18.76 54.34 19.04C54.9133 19.32 55.4067 19.7267 55.82 20.26C56.2333 20.7933 56.44 21.48 56.44 22.32C56.44 23.12 56.2333 23.8467 55.82 24.5C55.42 25.1533 54.8333 25.6733 54.06 26.06C53.2867 26.4467 52.3733 26.64 51.32 26.64ZM57.9647 19.46C57.9647 18.0733 58.2647 16.84 58.8647 15.76C59.4647 14.6667 60.298 13.82 61.3647 13.22C62.4447 12.6067 63.6647 12.3 65.0247 12.3C66.6914 12.3 68.118 12.74 69.3047 13.62C70.4914 14.5 71.2847 15.7 71.6847 17.22H67.9247C67.6447 16.6333 67.2447 16.1867 66.7247 15.88C66.218 15.5733 65.638 15.42 64.9847 15.42C63.9314 15.42 63.078 15.7867 62.4247 16.52C61.7714 17.2533 61.4447 18.2333 61.4447 19.46C61.4447 20.6867 61.7714 21.6667 62.4247 22.4C63.078 23.1333 63.9314 23.5 64.9847 23.5C65.638 23.5 66.218 23.3467 66.7247 23.04C67.2447 22.7333 67.6447 22.2867 67.9247 21.7H71.6847C71.2847 23.22 70.4914 24.42 69.3047 25.3C68.118 26.1667 66.6914 26.6 65.0247 26.6C63.6647 26.6 62.4447 26.3 61.3647 25.7C60.298 25.0867 59.4647 24.24 58.8647 23.16C58.2647 22.08 57.9647 20.8467 57.9647 19.46ZM77.1991 23.86H81.6791V26.5H73.7791V12.46H77.1991V23.86ZM92.0503 24.02H86.8103L85.9703 26.5H82.3903L87.4703 12.46H91.4303L96.5103 26.5H92.8903L92.0503 24.02ZM91.1703 21.38L89.4303 16.24L87.7103 21.38H91.1703ZM103.316 12.46C104.796 12.46 106.09 12.7533 107.196 13.34C108.303 13.9267 109.156 14.7533 109.756 15.82C110.37 16.8733 110.676 18.0933 110.676 19.48C110.676 20.8533 110.37 22.0733 109.756 23.14C109.156 24.2067 108.296 25.0333 107.176 25.62C106.07 26.2067 104.783 26.5 103.316 26.5H98.0564V12.46H103.316ZM103.096 23.54C104.39 23.54 105.396 23.1867 106.116 22.48C106.836 21.7733 107.196 20.7733 107.196 19.48C107.196 18.1867 106.836 17.18 106.116 16.46C105.396 15.74 104.39 15.38 103.096 15.38H101.476V23.54H103.096Z" fill="white"/>
</svg>
